<svg xmlns="http://www.w3.org/2000/svg" width="1980" height="1084" viewBox="0 0 1980 1084">
  <defs>
    <style>
      .cls-1 {
        fill: #070101;
      }

      .cls-1, .cls-2 {
        fill-rule: evenodd;
      }

      .cls-2 {
        fill: #050101;
      }
    </style>
  </defs>
  <path id="Wypełnienie_kolorem_1" data-name="Wypełnienie kolorem 1" class="cls-1" d="M410,624l7,1c12.02,8.96,23.066,32.566,19,51-8.052,6.465-34.374,15.384-42,2C386.732,661.2,402.824,632.338,410,624Zm1,5a42.02,42.02,0,0,0-8,15c-1.785,6.59-4.217,13.709-5,20a53.251,53.251,0,0,0,0,13,16.743,16.743,0,0,0,8,4,32.419,32.419,0,0,0,9,0,28.255,28.255,0,0,0,8-2,34.34,34.34,0,0,0,9-6,25.365,25.365,0,0,0,1-12c-1.287-7.772-6.041-17.3-10-24C417.088,627,411,629,411,629Z"/>
  <path id="Wypełnienie_kolorem_2" data-name="Wypełnienie kolorem 2" class="cls-2" d="M446,612s-3.378,20.357-3,31c0.631,17.746,11,26,11,26s16.58-.72,26-7c8.537-5.691,10-16,10-16a21.234,21.234,0,0,0-3-8c-4.752-7.065-13.922-16.531-21-22C454.694,607.264,446,612,446,612Zm4,3s-4.283,16.306-3,27c1.666,13.885,9,21,9,21s9.77,0.243,17-4c9.873-5.794,12-14,12-14s0.378-6.781-19-23C453.059,611.169,450,615,450,615Z"/>
</svg>
